<svg class="icon" viewBox="0 0 1024 1024" xmlns="http://www.w3.org/2000/svg" width="200" height="200"><path d="M852.205 801.014l142.14 142.14c6.845 7.573 10.194 16.166 10.194 25.632 0 9.466-3.568 17.767-10.777 25.05a34.224 34.224 0 01-24.976 10.776 37.501 37.501 0 01-25.632-10.194L800.941 852.205c-100.853 82.648-212.628 120.367-335.544 113.158-122.844-7.208-229.376-57.453-319.67-150.732C59.292 716.836 17.203 606.445 19.46 483.6c2.257-122.844 48.569-231.27 138.79-325.35C252.33 67.956 360.756 21.79 483.6 19.46c122.916-2.258 233.235 39.83 331.03 126.266 93.28 90.294 143.524 196.826 150.732 319.67 7.282 122.843-30.51 234.691-113.158 335.544zm-359.502 92.114c113.814-3.058 208.26-42.088 283.261-117.236 75.003-75.003 114.106-169.447 117.237-283.189-3.058-113.741-42.161-208.186-117.237-283.26-75.075-75.003-169.52-114.106-283.26-117.165-113.742 3.059-208.187 42.089-283.262 117.237C134.44 284.517 95.337 378.962 92.278 492.776c3.059 113.669 42.089 208.113 117.237 283.188 75.002 75.003 169.447 114.106 283.261 117.164z"/></svg>